<?xml version="1.0" encoding="UTF-8" standalone="no"?><!DOCTYPE svg PUBLIC "-//W3C//DTD SVG 1.1//EN" "http://www.w3.org/Graphics/SVG/1.1/DTD/svg11.dtd"><svg width="100%" height="100%" viewBox="0 0 4224 1069" version="1.1" xmlns="http://www.w3.org/2000/svg" xmlns:xlink="http://www.w3.org/1999/xlink" xml:space="preserve" xmlns:serif="http://www.serif.com/" style="fill-rule:evenodd;clip-rule:evenodd;stroke-linejoin:round;stroke-miterlimit:2;"><path d="M1400.54,826.575c-40.791,-0.004 -75.5,-11.454 -104.125,-34.354c-27.912,-23.617 -41.866,-59.396 -41.866,-107.346c-0,-39.362 10.375,-69.417 31.129,-90.171c21.471,-21.471 50.812,-36.141 88.025,-44.012c37.929,-8.588 81.587,-12.884 130.962,-12.884l30.059,0c13.637,0 24.691,-11.054 24.691,-24.691c0,-23.613 -4.296,-46.513 -12.883,-68.7c-7.871,-22.9 -21.108,-41.509 -39.717,-55.821c-17.891,-15.025 -42.583,-22.542 -74.071,-22.542c-23.616,0 -42.937,2.504 -57.966,7.517c-15.029,5.008 -26.838,10.371 -35.425,16.096c-8.588,5.012 -15.746,7.516 -21.471,7.516c-8.588,0 -15.742,-4.291 -21.467,-12.879c-5.012,-8.587 -7.516,-16.462 -7.516,-23.616c-0,-10.021 7.516,-18.967 22.545,-26.842c15.025,-8.583 33.634,-15.383 55.817,-20.392c22.904,-5.725 45.446,-8.587 67.633,-8.587c47.946,-0 85.875,10.016 113.788,30.058c28.625,19.321 49.021,44.725 61.183,76.217c12.884,31.483 19.325,65.121 19.325,100.904l0,279.1c0,7.875 -3.221,14.671 -9.662,20.396c-5.721,5.012 -13.954,7.516 -24.688,7.516c-8.587,0 -16.458,-2.504 -23.621,-7.516c-6.437,-5.725 -9.658,-12.521 -9.658,-20.396c0,-15.992 -21.104,-24.167 -33.317,-13.838c-10.204,8.629 -21.283,16.821 -33.237,24.575c-26.479,16.459 -57.967,24.688 -94.467,24.688l0,0.004Zm17.175,-59.038c23.617,0 46.159,-6.083 67.629,-18.25c21.471,-12.166 39.005,-26.837 52.6,-44.012c14.313,-17.892 21.471,-34.708 21.471,-50.454l0,-23.617c0,-24.896 -20.187,-45.083 -45.087,-45.083c-32.204,-0 -62.975,2.146 -92.317,6.437c-28.625,3.579 -52.242,11.813 -70.85,24.692c-17.892,12.879 -26.837,33.275 -26.837,61.187c-0,30.771 8.945,53.317 26.837,67.63c18.608,14.312 40.792,21.47 66.554,21.47Zm375.154,51.525c-9.304,0 -17.533,-2.862 -24.691,-8.587c-6.438,-5.725 -9.659,-12.167 -9.659,-19.325l0,-453c0,-8.592 3.221,-15.029 9.659,-19.325c7.158,-5.008 15.387,-7.517 24.691,-7.517c9.305,0 17.18,2.509 23.617,7.517c6.442,4.296 9.658,10.733 9.658,19.325c0,12.854 20.659,19.512 30.167,10.854c7.021,-6.396 14.858,-12.521 23.508,-18.371c24.334,-17.175 54.388,-25.762 90.171,-25.762c34.354,-0 65.842,9.3 94.467,27.908c29.342,17.892 52.604,42.225 69.775,72.996c17.175,30.058 25.767,63.696 25.767,100.908l-0,284.467c-0,9.308 -3.584,16.462 -10.738,21.471c-7.158,4.296 -15.387,6.441 -24.692,6.441c-7.87,0 -15.741,-2.145 -23.612,-6.441c-7.158,-5.009 -10.733,-12.163 -10.733,-21.471l-0,-284.467c-0,-23.616 -6.088,-45.804 -18.25,-66.554c-12.167,-20.754 -28.267,-37.571 -48.309,-50.458c-20.037,-13.596 -42.225,-20.396 -66.554,-20.396c-21.467,-0 -42.225,5.729 -62.262,17.179c-19.325,10.733 -35.425,26.121 -48.309,46.158c-12.162,20.042 -18.25,44.73 -18.25,74.071l0,284.467c0,7.158 -3.575,13.6 -10.733,19.325c-6.438,5.725 -14.671,8.587 -24.688,8.587Zm470.505,249.046c-9.3,0 -17.171,-2.508 -23.613,-7.516c-6.442,-4.292 -9.662,-12.163 -9.662,-23.613c-0,-8.587 1.791,-16.104 5.366,-22.546c3.579,-6.441 9.304,-9.662 17.175,-9.662c17.179,-0 33.638,-5.363 49.379,-16.1c15.75,-10.733 30.417,-26.121 44.017,-46.159c13.596,-19.32 25.763,-41.508 36.496,-66.554c5.208,-11.808 9.912,-24.033 14.108,-36.683c8.884,-26.767 6.142,-55.729 -4.158,-81.988l-160.238,-408.404c-1.429,-4.296 -2.145,-7.871 -2.145,-10.733c-0,-6.446 2.145,-11.813 6.441,-16.104c5.009,-5.013 10.738,-8.946 17.175,-11.809c7.159,-3.579 13.596,-5.366 19.321,-5.366c1.038,-0 2.054,0.046 3.046,0.141c8.487,0.805 17.633,4.996 20.937,12.855c0.271,0.65 0.509,1.325 0.709,2.033l12.083,32.45c45.65,122.629 219.683,120.958 262.971,-2.525l10.492,-29.925c2.145,-5.013 5.362,-8.592 9.662,-10.738c4.292,-2.862 8.942,-4.291 13.95,-4.291c5.725,-0 11.808,1.429 18.25,4.291c7.154,2.863 12.883,6.8 17.175,11.809c5.008,5.012 7.517,11.096 7.517,18.25c-0,3.579 -0.717,6.8 -2.15,9.662l-166.388,449.784c-10.733,28.629 -22.183,58.683 -34.35,90.17c-12.166,31.488 -26.479,60.471 -42.937,86.95c-15.746,27.196 -35.067,49.38 -57.967,66.555c-22.904,17.179 -50.454,25.766 -82.662,25.766Zm607.504,-241.533c-33.634,-0 -63.338,-4.292 -89.1,-12.883c-25.046,-8.584 -44.725,-18.605 -59.042,-30.055c-13.596,-12.162 -20.396,-23.616 -20.396,-34.35c0,-5.008 1.075,-9.662 3.221,-13.958c2.15,-5.008 5.013,-9.3 8.588,-12.879c4.295,-3.579 8.587,-5.371 12.883,-5.371c7.871,0 16.462,4.3 25.762,12.888c10.021,7.87 23.621,16.1 40.796,24.687c17.888,8.588 42.938,12.883 75.138,12.883c40.796,0 69.421,-7.516 85.879,-22.545c16.458,-15.742 24.692,-33.634 24.692,-53.671c-0,-23.617 -6.442,-41.871 -19.321,-54.75c-12.167,-13.596 -28.629,-23.975 -49.379,-31.129c-20.042,-7.159 -41.509,-13.959 -64.413,-20.396c-22.183,-6.442 -43.654,-14.313 -64.408,-23.617c-20.034,-9.3 -36.5,-22.542 -49.379,-39.717c-12.163,-17.891 -18.25,-41.508 -18.25,-70.85c-0,-22.9 5.725,-45.441 17.179,-67.629c11.45,-22.183 29.337,-40.791 53.671,-55.821c25.05,-15.029 57.97,-22.541 98.758,-22.541c23.617,-0 46.521,2.504 68.704,7.512c22.183,5.009 40.075,11.809 53.667,20.396c14.325,7.875 21.475,16.458 21.475,25.763c-0,2.862 -1.438,7.516 -4.288,13.958c-2.15,5.725 -5.362,10.733 -9.671,15.025c-4.287,4.296 -9.304,6.446 -15.016,6.446c-5.729,-0 -13.604,-2.509 -23.625,-7.517c-9.3,-5.008 -21.471,-10.017 -36.496,-15.029c-15.029,-5.013 -32.921,-7.513 -53.675,-7.513c-25.763,0 -46.517,4.65 -62.258,13.955c-15.746,9.304 -27.2,20.395 -34.355,33.279c-7.154,12.879 -10.733,25.404 -10.733,37.566c0,20.042 6.442,35.43 19.325,46.163c12.879,10.733 29.338,19.683 49.375,26.837c20.754,6.442 42.225,12.88 64.413,19.321c22.895,5.725 44.366,13.959 64.404,24.692c20.762,10.733 37.221,25.758 49.391,45.083c12.863,19.321 19.321,45.088 19.321,77.292c0,42.221 -15.033,75.858 -45.087,100.904c-30.063,25.05 -72.646,37.575 -127.75,37.575l-0,-0.004Zm310.996,-7.517c-9.288,0 -17.167,-2.504 -23.609,-7.516c-6.441,-5.009 -9.654,-11.45 -9.654,-19.321l0,-594.7c0,-36.5 8.575,-69.421 25.763,-98.763c17.883,-30.054 41.145,-54.029 69.775,-71.921c29.341,-17.891 61.183,-26.837 95.537,-26.837l26.842,-0c10.016,-0 17.516,3.221 22.533,9.662c5,6.438 7.521,13.955 7.521,22.542c-0,7.871 -2.521,15.029 -7.521,21.471c-5.017,6.437 -12.517,9.658 -22.533,9.658l-18.263,0c-24.325,0 -46.512,6.084 -66.546,18.25c-19.325,12.167 -34.704,27.913 -46.162,47.234c-10.729,19.32 -16.458,40.791 -17.171,64.408c0,65.212 52.863,118.079 118.071,118.079l35.437,0c7.863,0 13.938,2.863 18.246,8.592c4.288,5.725 6.442,12.521 6.442,20.396c-0,7.158 -2.154,13.954 -6.442,20.395c-4.308,5.721 -10.383,8.584 -18.246,8.584l-13.7,-0c-77.22,-0 -139.808,62.6 -139.808,139.816l0,283.134c0,7.871 -3.575,14.312 -10.746,19.321c-7.154,5.012 -15.746,7.516 -25.766,7.516Zm485.366,7.517c-45.087,-0 -85.175,-8.592 -120.241,-25.767c-34.342,-17.175 -61.53,-40.791 -81.584,-70.846c-19.321,-30.775 -28.975,-66.554 -28.975,-107.345l0,-119.159c0,-35.783 9.309,-68.704 27.9,-98.758c18.613,-30.775 43.3,-55.104 74.079,-73c31.496,-17.888 65.834,-26.833 103.059,-26.833c35.779,-0 68.696,8.587 98.75,25.762c30.779,16.458 55.466,39.363 74.079,68.7c18.592,29.346 27.9,63.338 27.9,101.983c-0,27.192 -4.654,46.871 -13.958,59.038c-9.292,12.171 -21.113,19.683 -35.417,22.542c-13.596,2.15 -28.267,3.225 -44.013,3.225l-202.883,-0c-21.942,-0 -39.721,17.779 -39.721,39.716c0,42.938 15.384,76.934 46.163,101.979c30.766,25.046 69.775,37.571 116.996,37.571c28.629,0 50.816,-3.575 66.562,-10.733c15.75,-7.158 27.917,-14.317 36.496,-21.471c9.304,-7.154 17.9,-10.733 25.762,-10.733c1.788,-0 3.492,0.208 5.138,0.625c7.5,1.896 13.717,7.608 18.058,14c1.004,1.491 1.875,3.054 2.567,4.7c2.867,5.008 4.292,9.658 4.292,13.95c-0,7.875 -6.442,17.537 -19.309,28.983c-12.9,11.454 -31.491,21.475 -55.833,30.063c-24.321,7.87 -52.95,11.808 -85.867,11.808Zm-161.025,-332.779c0,22.529 18.263,40.791 40.784,40.791l173.904,0c21.475,0 35.783,-2.145 42.95,-6.437c7.154,-5.013 10.729,-15.033 10.729,-30.058c-0,-22.9 -5.729,-44.371 -17.188,-64.409c-11.437,-20.754 -27.187,-37.571 -47.22,-50.454c-20.034,-13.596 -43.3,-20.396 -69.775,-20.396c-24.338,0 -46.875,6.084 -67.638,18.246c-20.033,12.171 -36.129,27.913 -48.3,47.233c-12.171,19.325 -18.246,41.155 -18.246,65.484Zm474.479,325.262c-9.304,0 -17.533,-2.862 -24.687,-8.587c-6.442,-5.725 -9.671,-12.167 -9.671,-19.325l0,-453c0,-8.592 3.229,-15.034 9.671,-19.325c7.154,-5.009 15.383,-7.517 24.687,-7.517c9.305,0 17.171,2.508 23.613,7.517c6.442,4.296 9.671,10.733 9.671,19.325c-0,13.521 22.375,20.033 32.204,10.733c13.592,-12.883 29.687,-23.258 48.296,-31.133c18.612,-8.588 39.725,-12.879 63.333,-12.879l37.571,-0c7.883,-0 14.325,3.22 19.325,9.662c5.729,6.438 8.592,13.954 8.592,22.542c-0,9.3 -2.863,17.175 -8.592,23.616c-5,5.721 -11.442,8.584 -19.325,8.584l-37.571,-0c-23.608,-0 -46.508,6.446 -68.696,19.325c-21.475,12.883 -38.991,30.775 -52.604,53.675c-13.596,22.9 -20.383,50.808 -20.383,83.729l-0,265.146c-0,7.158 -3.592,13.6 -10.746,19.325c-6.442,5.725 -14.671,8.587 -24.688,8.587Z" style="fill:#6052ff;fill-rule:nonzero;"/><path d="M520.096,0c-37.2,0 -91.087,23.021 -111.6,59.929c-85.041,153 -398.654,858.079 -398.654,858.079c-24.554,52.855 -1.579,115.7 51.275,140.255c52.85,24.554 115.696,1.579 140.25,-51.275c0,-0 48.146,-103.888 57.917,-124.663c0.1,-0.212 0.471,0.013 0.704,0.017c0.513,0.004 1.571,0.016 2.358,0.016c86.821,0.005 422.5,-20.77 518.58,0c44.77,9.68 57.9,124.63 57.9,124.63c24.554,52.854 87.4,75.829 140.25,51.275c52.854,-24.555 75.829,-87.4 51.275,-140.255l-398.655,-858.079c-20.22,-43.525 -74.4,-59.929 -111.6,-59.929Zm-162.712,671.175c27.117,58.375 298.308,58.375 325.425,0c27.121,-58.371 -108.475,-350.233 -162.713,-350.233c-54.237,-0 -189.833,291.862 -162.712,350.233Z" style="fill:#6052ff;"/></svg>